G04 (created by PCBNEW (2013-07-07 BZR 4022)-stable) date 9/16/2014 9:18:02 AM*
%MOIN*%
G04 Gerber Fmt 3.4, Leading zero omitted, Abs format*
%FSLAX34Y34*%
G01*
G70*
G90*
G04 APERTURE LIST*
%ADD10C,0.00590551*%
%ADD11R,0.0748031X0.0748031*%
%ADD12R,0.0748031X0.0708661*%
%ADD13R,0.0629921X0.0826772*%
%ADD14R,0.0787402X0.015748*%
%ADD15C,0.0688976*%
%ADD16R,0.0511811X0.0216535*%
%ADD17R,0.0157X0.0236*%
%ADD18R,0.045X0.025*%
%ADD19C,0.01*%
G04 APERTURE END LIST*
G54D10*
G54D11*
X84500Y-57472D03*
X84500Y-56527D03*
G54D12*
X84500Y-58496D03*
X84500Y-55503D03*
G54D13*
X85503Y-55779D03*
X85503Y-58220D03*
G54D14*
X85681Y-56744D03*
X85681Y-57000D03*
X85681Y-57255D03*
X85681Y-57511D03*
X85681Y-56488D03*
G54D15*
X91500Y-56500D03*
X91500Y-57500D03*
G54D16*
X87500Y-56625D03*
X87500Y-57000D03*
X87500Y-57374D03*
X88484Y-57374D03*
X88484Y-56625D03*
G54D17*
X88477Y-56000D03*
X88123Y-56000D03*
X86823Y-56000D03*
X87177Y-56000D03*
X88477Y-55400D03*
X88123Y-55400D03*
G54D18*
X89500Y-56050D03*
X89500Y-55450D03*
G54D19*
X90874Y-56625D02*
X91374Y-56625D01*
X88900Y-56625D02*
X90874Y-56625D01*
X91374Y-56625D02*
X91500Y-56500D01*
X88484Y-56625D02*
X88900Y-56625D01*
X88900Y-56625D02*
X88924Y-56625D01*
X88924Y-56625D02*
X89500Y-56050D01*
X88477Y-56000D02*
X88477Y-56618D01*
X88477Y-56618D02*
X88484Y-56625D01*
X86750Y-56500D02*
X86750Y-56073D01*
X86750Y-56073D02*
X86823Y-56000D01*
X86750Y-56488D02*
X86750Y-56500D01*
X86750Y-56500D02*
X86750Y-57250D01*
X86874Y-57374D02*
X87500Y-57374D01*
X86750Y-57250D02*
X86874Y-57374D01*
X85681Y-56488D02*
X86750Y-56488D01*
X86750Y-56488D02*
X87362Y-56488D01*
X87362Y-56488D02*
X87500Y-56625D01*
X89500Y-55450D02*
X89450Y-55400D01*
X89450Y-55400D02*
X88477Y-55400D01*
G54D10*
G36*
X91930Y-58983D02*
X91924Y-59010D01*
X91919Y-59018D01*
X91910Y-59025D01*
X91883Y-59030D01*
X91847Y-59030D01*
X91847Y-57918D01*
X91500Y-57570D01*
X91429Y-57641D01*
X91429Y-57500D01*
X91081Y-57152D01*
X90981Y-57185D01*
X90900Y-57407D01*
X90911Y-57643D01*
X90981Y-57814D01*
X91081Y-57847D01*
X91429Y-57500D01*
X91429Y-57641D01*
X91152Y-57918D01*
X91185Y-58018D01*
X91407Y-58099D01*
X91643Y-58088D01*
X91814Y-58018D01*
X91847Y-57918D01*
X91847Y-59030D01*
X88990Y-59030D01*
X88990Y-57486D01*
X88990Y-57261D01*
X88990Y-57215D01*
X88951Y-57123D01*
X88881Y-57053D01*
X88789Y-57015D01*
X88596Y-57015D01*
X88534Y-57078D01*
X88534Y-57324D01*
X88927Y-57324D01*
X88990Y-57261D01*
X88990Y-57486D01*
X88927Y-57424D01*
X88534Y-57424D01*
X88534Y-57669D01*
X88596Y-57732D01*
X88789Y-57732D01*
X88881Y-57694D01*
X88951Y-57624D01*
X88990Y-57532D01*
X88990Y-57486D01*
X88990Y-59030D01*
X88434Y-59030D01*
X88434Y-57669D01*
X88434Y-57424D01*
X88040Y-57424D01*
X87978Y-57486D01*
X87978Y-57532D01*
X88016Y-57624D01*
X88086Y-57694D01*
X88178Y-57732D01*
X88371Y-57732D01*
X88434Y-57669D01*
X88434Y-59030D01*
X86068Y-59030D01*
X86068Y-58683D01*
X86068Y-58332D01*
X86006Y-58270D01*
X85553Y-58270D01*
X85553Y-58821D01*
X85616Y-58883D01*
X85769Y-58883D01*
X85868Y-58883D01*
X85960Y-58845D01*
X86030Y-58775D01*
X86068Y-58683D01*
X86068Y-59030D01*
X85250Y-59030D01*
X85250Y-58883D01*
X85391Y-58883D01*
X85453Y-58821D01*
X85453Y-58270D01*
X85446Y-58270D01*
X85446Y-58170D01*
X85453Y-58170D01*
X85453Y-58162D01*
X85553Y-58162D01*
X85553Y-58170D01*
X86006Y-58170D01*
X86068Y-58107D01*
X86068Y-57840D01*
X86124Y-57840D01*
X86216Y-57802D01*
X86286Y-57731D01*
X86324Y-57640D01*
X86324Y-57613D01*
X86262Y-57551D01*
X85731Y-57551D01*
X85731Y-57557D01*
X85631Y-57557D01*
X85631Y-57551D01*
X85623Y-57551D01*
X85623Y-57484D01*
X86104Y-57484D01*
X86134Y-57472D01*
X86262Y-57472D01*
X86324Y-57409D01*
X86324Y-57383D01*
X86286Y-57291D01*
X86224Y-57229D01*
X86224Y-57147D01*
X86216Y-57127D01*
X86224Y-57108D01*
X86224Y-57049D01*
X86224Y-56891D01*
X86216Y-56872D01*
X86224Y-56852D01*
X86224Y-56793D01*
X86224Y-56688D01*
X86550Y-56688D01*
X86550Y-57250D01*
X86565Y-57326D01*
X86608Y-57391D01*
X86732Y-57515D01*
X86797Y-57558D01*
X86797Y-57558D01*
X86810Y-57561D01*
X86874Y-57574D01*
X87123Y-57574D01*
X87159Y-57609D01*
X87214Y-57632D01*
X87273Y-57632D01*
X87785Y-57632D01*
X87840Y-57609D01*
X87882Y-57567D01*
X87905Y-57512D01*
X87905Y-57452D01*
X87905Y-57311D01*
X87967Y-57250D01*
X87978Y-57224D01*
X87978Y-57261D01*
X88040Y-57324D01*
X88434Y-57324D01*
X88434Y-57078D01*
X88371Y-57015D01*
X88178Y-57015D01*
X88086Y-57053D01*
X88016Y-57123D01*
X88005Y-57149D01*
X88005Y-57112D01*
X87943Y-57050D01*
X87550Y-57050D01*
X87550Y-57057D01*
X87450Y-57057D01*
X87450Y-57050D01*
X87056Y-57050D01*
X86994Y-57112D01*
X86994Y-57158D01*
X87000Y-57174D01*
X86956Y-57174D01*
X86950Y-57167D01*
X86950Y-56688D01*
X87094Y-56688D01*
X87094Y-56688D01*
X87032Y-56749D01*
X86994Y-56841D01*
X86994Y-56887D01*
X87056Y-56950D01*
X87450Y-56950D01*
X87450Y-56942D01*
X87550Y-56942D01*
X87550Y-56950D01*
X87943Y-56950D01*
X88005Y-56887D01*
X88005Y-56841D01*
X87967Y-56749D01*
X87905Y-56688D01*
X87905Y-56488D01*
X87883Y-56432D01*
X87840Y-56390D01*
X87785Y-56367D01*
X87726Y-56367D01*
X87524Y-56367D01*
X87503Y-56346D01*
X87438Y-56303D01*
X87426Y-56300D01*
X87467Y-56259D01*
X87505Y-56167D01*
X87505Y-56068D01*
X87505Y-55931D01*
X87505Y-55832D01*
X87467Y-55740D01*
X87396Y-55669D01*
X87305Y-55631D01*
X87278Y-55632D01*
X87216Y-55694D01*
X87216Y-55950D01*
X87443Y-55950D01*
X87505Y-55887D01*
X87505Y-55931D01*
X87505Y-56068D01*
X87505Y-56112D01*
X87443Y-56050D01*
X87216Y-56050D01*
X87216Y-56057D01*
X87137Y-56057D01*
X87137Y-56050D01*
X87119Y-56050D01*
X87119Y-55950D01*
X87137Y-55950D01*
X87137Y-55694D01*
X87075Y-55632D01*
X87048Y-55631D01*
X86957Y-55669D01*
X86894Y-55731D01*
X86871Y-55731D01*
X86714Y-55731D01*
X86659Y-55754D01*
X86617Y-55796D01*
X86594Y-55852D01*
X86594Y-55911D01*
X86594Y-55952D01*
X86565Y-55996D01*
X86550Y-56073D01*
X86550Y-56288D01*
X86165Y-56288D01*
X86159Y-56282D01*
X86104Y-56259D01*
X86061Y-56259D01*
X86068Y-56242D01*
X86068Y-55316D01*
X86030Y-55224D01*
X85960Y-55154D01*
X85868Y-55116D01*
X85769Y-55116D01*
X85616Y-55116D01*
X85553Y-55178D01*
X85553Y-55729D01*
X86006Y-55729D01*
X86068Y-55667D01*
X86068Y-55316D01*
X86068Y-56242D01*
X86068Y-55892D01*
X86006Y-55829D01*
X85553Y-55829D01*
X85553Y-55837D01*
X85453Y-55837D01*
X85453Y-55829D01*
X85446Y-55829D01*
X85446Y-55729D01*
X85453Y-55729D01*
X85453Y-55178D01*
X85391Y-55116D01*
X85250Y-55116D01*
X85250Y-54969D01*
X91883Y-54969D01*
X91910Y-54974D01*
X91919Y-54981D01*
X91924Y-54989D01*
X91930Y-55016D01*
X91930Y-56246D01*
X91919Y-56220D01*
X91780Y-56081D01*
X91598Y-56005D01*
X91402Y-56005D01*
X91220Y-56080D01*
X91081Y-56219D01*
X91005Y-56401D01*
X91005Y-56425D01*
X90874Y-56425D01*
X89406Y-56425D01*
X89507Y-56325D01*
X89754Y-56325D01*
X89809Y-56302D01*
X89852Y-56260D01*
X89874Y-56204D01*
X89875Y-56145D01*
X89875Y-55895D01*
X89852Y-55840D01*
X89810Y-55797D01*
X89754Y-55775D01*
X89695Y-55774D01*
X89245Y-55774D01*
X89190Y-55797D01*
X89147Y-55839D01*
X89125Y-55895D01*
X89124Y-55954D01*
X89124Y-56142D01*
X88850Y-56416D01*
X88825Y-56390D01*
X88770Y-56367D01*
X88710Y-56367D01*
X88677Y-56367D01*
X88677Y-56208D01*
X88682Y-56203D01*
X88705Y-56147D01*
X88705Y-56088D01*
X88705Y-55852D01*
X88682Y-55797D01*
X88640Y-55754D01*
X88585Y-55732D01*
X88525Y-55731D01*
X88405Y-55731D01*
X88373Y-55700D01*
X88405Y-55668D01*
X88428Y-55668D01*
X88585Y-55668D01*
X88640Y-55645D01*
X88682Y-55603D01*
X88683Y-55600D01*
X89124Y-55600D01*
X89124Y-55604D01*
X89147Y-55659D01*
X89189Y-55702D01*
X89245Y-55724D01*
X89304Y-55725D01*
X89754Y-55725D01*
X89809Y-55702D01*
X89852Y-55660D01*
X89874Y-55604D01*
X89875Y-55545D01*
X89875Y-55295D01*
X89852Y-55240D01*
X89810Y-55197D01*
X89754Y-55175D01*
X89695Y-55174D01*
X89245Y-55174D01*
X89190Y-55197D01*
X89187Y-55200D01*
X88683Y-55200D01*
X88682Y-55197D01*
X88640Y-55154D01*
X88585Y-55132D01*
X88525Y-55131D01*
X88405Y-55131D01*
X88342Y-55069D01*
X88251Y-55031D01*
X88224Y-55032D01*
X88162Y-55094D01*
X88162Y-55350D01*
X88180Y-55350D01*
X88180Y-55450D01*
X88162Y-55450D01*
X88162Y-55694D01*
X88162Y-55705D01*
X88162Y-55950D01*
X88180Y-55950D01*
X88180Y-56050D01*
X88162Y-56050D01*
X88162Y-56305D01*
X88224Y-56367D01*
X88198Y-56367D01*
X88143Y-56390D01*
X88101Y-56432D01*
X88083Y-56474D01*
X88083Y-56305D01*
X88083Y-56050D01*
X88083Y-55950D01*
X88083Y-55705D01*
X88083Y-55694D01*
X88083Y-55450D01*
X88083Y-55350D01*
X88083Y-55094D01*
X88021Y-55032D01*
X87994Y-55031D01*
X87903Y-55069D01*
X87832Y-55140D01*
X87794Y-55232D01*
X87794Y-55331D01*
X87794Y-55287D01*
X87857Y-55350D01*
X88083Y-55350D01*
X88083Y-55450D01*
X87857Y-55450D01*
X87794Y-55512D01*
X87794Y-55468D01*
X87794Y-55567D01*
X87832Y-55659D01*
X87872Y-55700D01*
X87832Y-55740D01*
X87794Y-55832D01*
X87794Y-55931D01*
X87794Y-55887D01*
X87857Y-55950D01*
X88083Y-55950D01*
X88083Y-56050D01*
X87857Y-56050D01*
X87794Y-56112D01*
X87794Y-56068D01*
X87794Y-56167D01*
X87832Y-56259D01*
X87903Y-56330D01*
X87994Y-56368D01*
X88021Y-56368D01*
X88083Y-56305D01*
X88083Y-56474D01*
X88078Y-56487D01*
X88078Y-56547D01*
X88078Y-56763D01*
X88101Y-56819D01*
X88143Y-56861D01*
X88198Y-56884D01*
X88258Y-56884D01*
X88769Y-56884D01*
X88825Y-56861D01*
X88860Y-56825D01*
X88900Y-56825D01*
X88924Y-56825D01*
X90874Y-56825D01*
X91126Y-56825D01*
X91219Y-56918D01*
X91278Y-56943D01*
X91185Y-56981D01*
X91152Y-57081D01*
X91500Y-57429D01*
X91847Y-57081D01*
X91814Y-56981D01*
X91715Y-56945D01*
X91779Y-56919D01*
X91918Y-56780D01*
X91930Y-56753D01*
X91930Y-57156D01*
X91918Y-57152D01*
X91570Y-57500D01*
X91918Y-57847D01*
X91930Y-57843D01*
X91930Y-58983D01*
X91930Y-58983D01*
G37*
G54D19*
X91930Y-58983D02*
X91924Y-59010D01*
X91919Y-59018D01*
X91910Y-59025D01*
X91883Y-59030D01*
X91847Y-59030D01*
X91847Y-57918D01*
X91500Y-57570D01*
X91429Y-57641D01*
X91429Y-57500D01*
X91081Y-57152D01*
X90981Y-57185D01*
X90900Y-57407D01*
X90911Y-57643D01*
X90981Y-57814D01*
X91081Y-57847D01*
X91429Y-57500D01*
X91429Y-57641D01*
X91152Y-57918D01*
X91185Y-58018D01*
X91407Y-58099D01*
X91643Y-58088D01*
X91814Y-58018D01*
X91847Y-57918D01*
X91847Y-59030D01*
X88990Y-59030D01*
X88990Y-57486D01*
X88990Y-57261D01*
X88990Y-57215D01*
X88951Y-57123D01*
X88881Y-57053D01*
X88789Y-57015D01*
X88596Y-57015D01*
X88534Y-57078D01*
X88534Y-57324D01*
X88927Y-57324D01*
X88990Y-57261D01*
X88990Y-57486D01*
X88927Y-57424D01*
X88534Y-57424D01*
X88534Y-57669D01*
X88596Y-57732D01*
X88789Y-57732D01*
X88881Y-57694D01*
X88951Y-57624D01*
X88990Y-57532D01*
X88990Y-57486D01*
X88990Y-59030D01*
X88434Y-59030D01*
X88434Y-57669D01*
X88434Y-57424D01*
X88040Y-57424D01*
X87978Y-57486D01*
X87978Y-57532D01*
X88016Y-57624D01*
X88086Y-57694D01*
X88178Y-57732D01*
X88371Y-57732D01*
X88434Y-57669D01*
X88434Y-59030D01*
X86068Y-59030D01*
X86068Y-58683D01*
X86068Y-58332D01*
X86006Y-58270D01*
X85553Y-58270D01*
X85553Y-58821D01*
X85616Y-58883D01*
X85769Y-58883D01*
X85868Y-58883D01*
X85960Y-58845D01*
X86030Y-58775D01*
X86068Y-58683D01*
X86068Y-59030D01*
X85250Y-59030D01*
X85250Y-58883D01*
X85391Y-58883D01*
X85453Y-58821D01*
X85453Y-58270D01*
X85446Y-58270D01*
X85446Y-58170D01*
X85453Y-58170D01*
X85453Y-58162D01*
X85553Y-58162D01*
X85553Y-58170D01*
X86006Y-58170D01*
X86068Y-58107D01*
X86068Y-57840D01*
X86124Y-57840D01*
X86216Y-57802D01*
X86286Y-57731D01*
X86324Y-57640D01*
X86324Y-57613D01*
X86262Y-57551D01*
X85731Y-57551D01*
X85731Y-57557D01*
X85631Y-57557D01*
X85631Y-57551D01*
X85623Y-57551D01*
X85623Y-57484D01*
X86104Y-57484D01*
X86134Y-57472D01*
X86262Y-57472D01*
X86324Y-57409D01*
X86324Y-57383D01*
X86286Y-57291D01*
X86224Y-57229D01*
X86224Y-57147D01*
X86216Y-57127D01*
X86224Y-57108D01*
X86224Y-57049D01*
X86224Y-56891D01*
X86216Y-56872D01*
X86224Y-56852D01*
X86224Y-56793D01*
X86224Y-56688D01*
X86550Y-56688D01*
X86550Y-57250D01*
X86565Y-57326D01*
X86608Y-57391D01*
X86732Y-57515D01*
X86797Y-57558D01*
X86797Y-57558D01*
X86810Y-57561D01*
X86874Y-57574D01*
X87123Y-57574D01*
X87159Y-57609D01*
X87214Y-57632D01*
X87273Y-57632D01*
X87785Y-57632D01*
X87840Y-57609D01*
X87882Y-57567D01*
X87905Y-57512D01*
X87905Y-57452D01*
X87905Y-57311D01*
X87967Y-57250D01*
X87978Y-57224D01*
X87978Y-57261D01*
X88040Y-57324D01*
X88434Y-57324D01*
X88434Y-57078D01*
X88371Y-57015D01*
X88178Y-57015D01*
X88086Y-57053D01*
X88016Y-57123D01*
X88005Y-57149D01*
X88005Y-57112D01*
X87943Y-57050D01*
X87550Y-57050D01*
X87550Y-57057D01*
X87450Y-57057D01*
X87450Y-57050D01*
X87056Y-57050D01*
X86994Y-57112D01*
X86994Y-57158D01*
X87000Y-57174D01*
X86956Y-57174D01*
X86950Y-57167D01*
X86950Y-56688D01*
X87094Y-56688D01*
X87094Y-56688D01*
X87032Y-56749D01*
X86994Y-56841D01*
X86994Y-56887D01*
X87056Y-56950D01*
X87450Y-56950D01*
X87450Y-56942D01*
X87550Y-56942D01*
X87550Y-56950D01*
X87943Y-56950D01*
X88005Y-56887D01*
X88005Y-56841D01*
X87967Y-56749D01*
X87905Y-56688D01*
X87905Y-56488D01*
X87883Y-56432D01*
X87840Y-56390D01*
X87785Y-56367D01*
X87726Y-56367D01*
X87524Y-56367D01*
X87503Y-56346D01*
X87438Y-56303D01*
X87426Y-56300D01*
X87467Y-56259D01*
X87505Y-56167D01*
X87505Y-56068D01*
X87505Y-55931D01*
X87505Y-55832D01*
X87467Y-55740D01*
X87396Y-55669D01*
X87305Y-55631D01*
X87278Y-55632D01*
X87216Y-55694D01*
X87216Y-55950D01*
X87443Y-55950D01*
X87505Y-55887D01*
X87505Y-55931D01*
X87505Y-56068D01*
X87505Y-56112D01*
X87443Y-56050D01*
X87216Y-56050D01*
X87216Y-56057D01*
X87137Y-56057D01*
X87137Y-56050D01*
X87119Y-56050D01*
X87119Y-55950D01*
X87137Y-55950D01*
X87137Y-55694D01*
X87075Y-55632D01*
X87048Y-55631D01*
X86957Y-55669D01*
X86894Y-55731D01*
X86871Y-55731D01*
X86714Y-55731D01*
X86659Y-55754D01*
X86617Y-55796D01*
X86594Y-55852D01*
X86594Y-55911D01*
X86594Y-55952D01*
X86565Y-55996D01*
X86550Y-56073D01*
X86550Y-56288D01*
X86165Y-56288D01*
X86159Y-56282D01*
X86104Y-56259D01*
X86061Y-56259D01*
X86068Y-56242D01*
X86068Y-55316D01*
X86030Y-55224D01*
X85960Y-55154D01*
X85868Y-55116D01*
X85769Y-55116D01*
X85616Y-55116D01*
X85553Y-55178D01*
X85553Y-55729D01*
X86006Y-55729D01*
X86068Y-55667D01*
X86068Y-55316D01*
X86068Y-56242D01*
X86068Y-55892D01*
X86006Y-55829D01*
X85553Y-55829D01*
X85553Y-55837D01*
X85453Y-55837D01*
X85453Y-55829D01*
X85446Y-55829D01*
X85446Y-55729D01*
X85453Y-55729D01*
X85453Y-55178D01*
X85391Y-55116D01*
X85250Y-55116D01*
X85250Y-54969D01*
X91883Y-54969D01*
X91910Y-54974D01*
X91919Y-54981D01*
X91924Y-54989D01*
X91930Y-55016D01*
X91930Y-56246D01*
X91919Y-56220D01*
X91780Y-56081D01*
X91598Y-56005D01*
X91402Y-56005D01*
X91220Y-56080D01*
X91081Y-56219D01*
X91005Y-56401D01*
X91005Y-56425D01*
X90874Y-56425D01*
X89406Y-56425D01*
X89507Y-56325D01*
X89754Y-56325D01*
X89809Y-56302D01*
X89852Y-56260D01*
X89874Y-56204D01*
X89875Y-56145D01*
X89875Y-55895D01*
X89852Y-55840D01*
X89810Y-55797D01*
X89754Y-55775D01*
X89695Y-55774D01*
X89245Y-55774D01*
X89190Y-55797D01*
X89147Y-55839D01*
X89125Y-55895D01*
X89124Y-55954D01*
X89124Y-56142D01*
X88850Y-56416D01*
X88825Y-56390D01*
X88770Y-56367D01*
X88710Y-56367D01*
X88677Y-56367D01*
X88677Y-56208D01*
X88682Y-56203D01*
X88705Y-56147D01*
X88705Y-56088D01*
X88705Y-55852D01*
X88682Y-55797D01*
X88640Y-55754D01*
X88585Y-55732D01*
X88525Y-55731D01*
X88405Y-55731D01*
X88373Y-55700D01*
X88405Y-55668D01*
X88428Y-55668D01*
X88585Y-55668D01*
X88640Y-55645D01*
X88682Y-55603D01*
X88683Y-55600D01*
X89124Y-55600D01*
X89124Y-55604D01*
X89147Y-55659D01*
X89189Y-55702D01*
X89245Y-55724D01*
X89304Y-55725D01*
X89754Y-55725D01*
X89809Y-55702D01*
X89852Y-55660D01*
X89874Y-55604D01*
X89875Y-55545D01*
X89875Y-55295D01*
X89852Y-55240D01*
X89810Y-55197D01*
X89754Y-55175D01*
X89695Y-55174D01*
X89245Y-55174D01*
X89190Y-55197D01*
X89187Y-55200D01*
X88683Y-55200D01*
X88682Y-55197D01*
X88640Y-55154D01*
X88585Y-55132D01*
X88525Y-55131D01*
X88405Y-55131D01*
X88342Y-55069D01*
X88251Y-55031D01*
X88224Y-55032D01*
X88162Y-55094D01*
X88162Y-55350D01*
X88180Y-55350D01*
X88180Y-55450D01*
X88162Y-55450D01*
X88162Y-55694D01*
X88162Y-55705D01*
X88162Y-55950D01*
X88180Y-55950D01*
X88180Y-56050D01*
X88162Y-56050D01*
X88162Y-56305D01*
X88224Y-56367D01*
X88198Y-56367D01*
X88143Y-56390D01*
X88101Y-56432D01*
X88083Y-56474D01*
X88083Y-56305D01*
X88083Y-56050D01*
X88083Y-55950D01*
X88083Y-55705D01*
X88083Y-55694D01*
X88083Y-55450D01*
X88083Y-55350D01*
X88083Y-55094D01*
X88021Y-55032D01*
X87994Y-55031D01*
X87903Y-55069D01*
X87832Y-55140D01*
X87794Y-55232D01*
X87794Y-55331D01*
X87794Y-55287D01*
X87857Y-55350D01*
X88083Y-55350D01*
X88083Y-55450D01*
X87857Y-55450D01*
X87794Y-55512D01*
X87794Y-55468D01*
X87794Y-55567D01*
X87832Y-55659D01*
X87872Y-55700D01*
X87832Y-55740D01*
X87794Y-55832D01*
X87794Y-55931D01*
X87794Y-55887D01*
X87857Y-55950D01*
X88083Y-55950D01*
X88083Y-56050D01*
X87857Y-56050D01*
X87794Y-56112D01*
X87794Y-56068D01*
X87794Y-56167D01*
X87832Y-56259D01*
X87903Y-56330D01*
X87994Y-56368D01*
X88021Y-56368D01*
X88083Y-56305D01*
X88083Y-56474D01*
X88078Y-56487D01*
X88078Y-56547D01*
X88078Y-56763D01*
X88101Y-56819D01*
X88143Y-56861D01*
X88198Y-56884D01*
X88258Y-56884D01*
X88769Y-56884D01*
X88825Y-56861D01*
X88860Y-56825D01*
X88900Y-56825D01*
X88924Y-56825D01*
X90874Y-56825D01*
X91126Y-56825D01*
X91219Y-56918D01*
X91278Y-56943D01*
X91185Y-56981D01*
X91152Y-57081D01*
X91500Y-57429D01*
X91847Y-57081D01*
X91814Y-56981D01*
X91715Y-56945D01*
X91779Y-56919D01*
X91918Y-56780D01*
X91930Y-56753D01*
X91930Y-57156D01*
X91918Y-57152D01*
X91570Y-57500D01*
X91918Y-57847D01*
X91930Y-57843D01*
X91930Y-58983D01*
M02*
