G04 (created by PCBNEW (2013-07-07 BZR 4022)-stable) date 9/17/2014 9:49:00 AM*
%MOIN*%
G04 Gerber Fmt 3.4, Leading zero omitted, Abs format*
%FSLAX34Y34*%
G01*
G70*
G90*
G04 APERTURE LIST*
%ADD10C,0.00590551*%
%ADD11C,0.00787402*%
%ADD12C,0.0028*%
%ADD13C,0.005*%
%ADD14C,0.00472441*%
G04 APERTURE END LIST*
G54D10*
G54D11*
X89650Y-55800D02*
X89500Y-55650D01*
X89350Y-55800D02*
X89650Y-55800D01*
X89500Y-55650D02*
X89350Y-55800D01*
G54D10*
X87085Y-56350D02*
G75*
G03X87085Y-56350I-35J0D01*
G74*
G01*
G54D12*
X88400Y-56150D02*
X88600Y-56150D01*
X88600Y-56150D02*
X88600Y-55850D01*
X88600Y-55850D02*
X88400Y-55850D01*
X88200Y-56150D02*
X88000Y-56150D01*
X88000Y-56150D02*
X88000Y-55850D01*
X88000Y-55850D02*
X88200Y-55850D01*
X86900Y-55850D02*
X86700Y-55850D01*
X86700Y-55850D02*
X86700Y-56150D01*
X86700Y-56150D02*
X86900Y-56150D01*
X87100Y-55850D02*
X87300Y-55850D01*
X87300Y-55850D02*
X87300Y-56150D01*
X87300Y-56150D02*
X87100Y-56150D01*
X88400Y-55550D02*
X88600Y-55550D01*
X88600Y-55550D02*
X88600Y-55250D01*
X88600Y-55250D02*
X88400Y-55250D01*
X88200Y-55550D02*
X88000Y-55550D01*
X88000Y-55550D02*
X88000Y-55250D01*
X88000Y-55250D02*
X88200Y-55250D01*
G54D13*
X89250Y-56200D02*
X89250Y-55300D01*
X89250Y-55300D02*
X89750Y-55300D01*
X89750Y-55300D02*
X89750Y-56200D01*
X89750Y-56200D02*
X89250Y-56200D01*
G54D14*
X86151Y-58124D02*
X86151Y-58335D01*
X86137Y-58377D01*
X86109Y-58405D01*
X86067Y-58419D01*
X86039Y-58419D01*
X86446Y-58419D02*
X86278Y-58419D01*
X86362Y-58419D02*
X86362Y-58124D01*
X86334Y-58166D01*
X86306Y-58194D01*
X86278Y-58208D01*
X90807Y-56764D02*
X90807Y-56539D01*
X90919Y-56651D02*
X90694Y-56651D01*
X90624Y-56426D02*
X90624Y-56243D01*
X90736Y-56342D01*
X90736Y-56300D01*
X90750Y-56271D01*
X90764Y-56257D01*
X90792Y-56243D01*
X90863Y-56243D01*
X90891Y-56257D01*
X90905Y-56271D01*
X90919Y-56300D01*
X90919Y-56384D01*
X90905Y-56412D01*
X90891Y-56426D01*
X90891Y-56117D02*
X90905Y-56103D01*
X90919Y-56117D01*
X90905Y-56131D01*
X90891Y-56117D01*
X90919Y-56117D01*
X90624Y-56004D02*
X90624Y-55821D01*
X90736Y-55920D01*
X90736Y-55878D01*
X90750Y-55850D01*
X90764Y-55835D01*
X90792Y-55821D01*
X90863Y-55821D01*
X90891Y-55835D01*
X90905Y-55850D01*
X90919Y-55878D01*
X90919Y-55962D01*
X90905Y-55990D01*
X90891Y-56004D01*
X90638Y-57924D02*
X90624Y-57953D01*
X90624Y-57995D01*
X90638Y-58037D01*
X90666Y-58065D01*
X90694Y-58079D01*
X90750Y-58093D01*
X90792Y-58093D01*
X90849Y-58079D01*
X90877Y-58065D01*
X90905Y-58037D01*
X90919Y-57995D01*
X90919Y-57967D01*
X90905Y-57924D01*
X90891Y-57910D01*
X90792Y-57910D01*
X90792Y-57967D01*
X90919Y-57784D02*
X90624Y-57784D01*
X90919Y-57615D01*
X90624Y-57615D01*
X90919Y-57475D02*
X90624Y-57475D01*
X90624Y-57404D01*
X90638Y-57362D01*
X90666Y-57334D01*
X90694Y-57320D01*
X90750Y-57306D01*
X90792Y-57306D01*
X90849Y-57320D01*
X90877Y-57334D01*
X90905Y-57362D01*
X90919Y-57404D01*
X90919Y-57475D01*
X88975Y-56824D02*
X88975Y-57063D01*
X88989Y-57091D01*
X89003Y-57105D01*
X89031Y-57119D01*
X89087Y-57119D01*
X89115Y-57105D01*
X89129Y-57091D01*
X89143Y-57063D01*
X89143Y-56824D01*
X89439Y-57119D02*
X89270Y-57119D01*
X89354Y-57119D02*
X89354Y-56824D01*
X89326Y-56866D01*
X89298Y-56894D01*
X89270Y-56908D01*
X87600Y-56091D02*
X87586Y-56105D01*
X87544Y-56119D01*
X87516Y-56119D01*
X87474Y-56105D01*
X87446Y-56077D01*
X87432Y-56049D01*
X87417Y-55992D01*
X87417Y-55950D01*
X87432Y-55894D01*
X87446Y-55866D01*
X87474Y-55838D01*
X87516Y-55824D01*
X87544Y-55824D01*
X87586Y-55838D01*
X87600Y-55852D01*
X87713Y-55852D02*
X87727Y-55838D01*
X87755Y-55824D01*
X87825Y-55824D01*
X87853Y-55838D01*
X87867Y-55852D01*
X87882Y-55880D01*
X87882Y-55908D01*
X87867Y-55950D01*
X87699Y-56119D01*
X87882Y-56119D01*
X86650Y-55591D02*
X86636Y-55605D01*
X86594Y-55619D01*
X86566Y-55619D01*
X86524Y-55605D01*
X86496Y-55577D01*
X86482Y-55549D01*
X86467Y-55492D01*
X86467Y-55450D01*
X86482Y-55394D01*
X86496Y-55366D01*
X86524Y-55338D01*
X86566Y-55324D01*
X86594Y-55324D01*
X86636Y-55338D01*
X86650Y-55352D01*
X86932Y-55619D02*
X86763Y-55619D01*
X86847Y-55619D02*
X86847Y-55324D01*
X86819Y-55366D01*
X86791Y-55394D01*
X86763Y-55408D01*
X87600Y-55519D02*
X87502Y-55378D01*
X87432Y-55519D02*
X87432Y-55224D01*
X87544Y-55224D01*
X87572Y-55238D01*
X87586Y-55252D01*
X87600Y-55280D01*
X87600Y-55322D01*
X87586Y-55350D01*
X87572Y-55364D01*
X87544Y-55378D01*
X87432Y-55378D01*
X87882Y-55519D02*
X87713Y-55519D01*
X87797Y-55519D02*
X87797Y-55224D01*
X87769Y-55266D01*
X87741Y-55294D01*
X87713Y-55308D01*
X90219Y-55517D02*
X89924Y-55517D01*
X89924Y-55447D01*
X89938Y-55405D01*
X89966Y-55377D01*
X89994Y-55363D01*
X90050Y-55349D01*
X90092Y-55349D01*
X90149Y-55363D01*
X90177Y-55377D01*
X90205Y-55405D01*
X90219Y-55447D01*
X90219Y-55517D01*
X90219Y-55067D02*
X90219Y-55236D01*
X90219Y-55152D02*
X89924Y-55152D01*
X89966Y-55180D01*
X89994Y-55208D01*
X90008Y-55236D01*
M02*
